ply
format ascii 1.0
element vertex 148
property float x
property float y
property float z
property uchar red
property uchar green
property uchar blue
end_header
0.00 0.00 0.00 255 0 0
14.50 0.00 0.00 255 0 0
29.00 0.00 0.00 255 0 0
43.50 0.00 0.00 255 0 0
58.00 0.00 0.00 255 0 0
72.50 0.00 0.00 255 0 0
87.00 0.00 0.00 255 0 0
101.50 0.00 0.00 255 0 0
116.00 0.00 0.00 255 0 0
130.50 0.00 0.00 255 0 0
145.00 0.00 0.00 255 0 0
0.00 14.50 0.00 255 0 0
14.50 14.50 0.00 255 0 0
29.00 14.50 0.00 255 0 0
43.50 14.50 0.00 255 0 0
58.00 14.50 0.00 255 0 0
72.50 14.50 0.00 255 0 0
87.00 14.50 0.00 255 0 0
101.50 14.50 0.00 255 0 0
116.00 14.50 0.00 255 0 0
130.50 14.50 0.00 255 0 0
145.00 14.50 0.00 255 0 0
0.00 29.00 0.00 255 0 0
14.50 29.00 0.00 255 0 0
29.00 29.00 0.00 255 0 0
43.50 29.00 0.00 255 0 0
58.00 29.00 0.00 255 0 0
72.50 29.00 0.00 255 0 0
87.00 29.00 0.00 255 0 0
101.50 29.00 0.00 255 0 0
116.00 29.00 0.00 255 0 0
130.50 29.00 0.00 255 0 0
145.00 29.00 0.00 255 0 0
0.00 43.50 0.00 255 0 0
14.50 43.50 0.00 255 0 0
29.00 43.50 0.00 255 0 0
43.50 43.50 0.00 255 0 0
58.00 43.50 0.00 255 0 0
72.50 43.50 0.00 255 0 0
87.00 43.50 0.00 255 0 0
101.50 43.50 0.00 255 0 0
116.00 43.50 0.00 255 0 0
130.50 43.50 0.00 255 0 0
145.00 43.50 0.00 255 0 0
0.00 58.00 0.00 255 0 0
14.50 58.00 0.00 255 0 0
29.00 58.00 0.00 255 0 0
43.50 58.00 0.00 255 0 0
58.00 58.00 0.00 255 0 0
72.50 58.00 0.00 255 0 0
87.00 58.00 0.00 255 0 0
101.50 58.00 0.00 255 0 0
116.00 58.00 0.00 255 0 0
130.50 58.00 0.00 255 0 0
145.00 58.00 0.00 255 0 0
0.00 72.50 0.00 255 0 0
14.50 72.50 0.00 255 0 0
29.00 72.50 0.00 255 0 0
43.50 72.50 0.00 255 0 0
58.00 72.50 0.00 255 0 0
72.50 72.50 0.00 255 0 0
87.00 72.50 0.00 255 0 0
101.50 72.50 0.00 255 0 0
116.00 72.50 0.00 255 0 0
130.50 72.50 0.00 255 0 0
145.00 72.50 0.00 255 0 0
0.00 87.00 0.00 255 0 0
14.50 87.00 0.00 255 0 0
29.00 87.00 0.00 255 0 0
43.50 87.00 0.00 255 0 0
58.00 87.00 0.00 255 0 0
72.50 87.00 0.00 255 0 0
87.00 87.00 0.00 255 0 0
101.50 87.00 0.00 255 0 0
116.00 87.00 0.00 255 0 0
130.50 87.00 0.00 255 0 0
145.00 87.00 0.00 255 0 0
0.00 101.50 0.00 255 0 0
14.50 101.50 0.00 255 0 0
29.00 101.50 0.00 255 0 0
43.50 101.50 0.00 255 0 0
58.00 101.50 0.00 255 0 0
72.50 101.50 0.00 255 0 0
87.00 101.50 0.00 255 0 0
101.50 101.50 0.00 255 0 0
116.00 101.50 0.00 255 0 0
130.50 101.50 0.00 255 0 0
145.00 101.50 0.00 255 0 0
54.45 -34.45 -376.07 0 0 255
25.75 -44.51 -378.28 0 0 255
12.41 -41.67 -356.27 0 0 255
-12.80 -33.99 -337.28 0 0 255
-21.70 -42.77 -337.28 0 0 255
-39.99 -33.08 -323.34 0 0 255
-43.89 -45.37 -316.68 0 0 255
73.94 -69.30 -347.10 0 0 255
122.88 -76.77 -342.90 0 0 255
148.11 -79.18 -338.21 0 0 255
168.88 -73.51 -330.28 0 0 255
203.85 -74.87 -330.57 0 0 255
191.83 -72.35 -313.56 0 0 255
153.09 -64.63 -308.15 0 0 255
121.90 -43.82 -304.96 0 0 255
106.02 -35.01 -288.82 0 0 255
71.38 -24.76 -296.35 0 0 255
84.73 87.05 -341.76 0 0 255
152.01 -124.83 -339.06 0 0 255
115.15 -117.72 -332.91 0 0 255
50.15 -96.59 -332.73 0 0 255
196.15 -96.31 -323.91 0 0 255
192.95 -46.41 -355.85 0 0 255
69.55 -33.56 -394.89 0 0 255
38.38 -34.52 -390.38 0 0 255
34.77 -41.28 -384.51 0 0 255
1.97 -34.61 -387.78 0 0 255
100.57 -50.14 -388.85 0 0 255
118.20 -52.89 -383.30 0 0 255
126.31 -46.27 -375.73 0 0 255
137.14 -59.86 -374.71 0 0 255
143.54 -61.68 -378.32 0 0 255
137.18 -30.54 -370.64 0 0 255
190.22 -25.22 -377.49 0 0 255
223.11 -73.99 -321.84 0 0 255
225.27 -80.22 -298.77 0 0 255
232.87 -77.89 -293.86 0 0 255
219.90 -74.76 -285.07 0 0 255
179.99 -22.20 -271.15 0 0 255
163.48 -45.33 -280.79 0 0 255
83.75 34.75 -347.15 0 0 255
6.97 18.69 -384.14 0 0 255
8.91 3.29 -385.42 0 0 255
-72.93 -15.80 -354.16 0 0 255
66.96 -19.00 -398.94 0 0 255
59.31 -135.18 -296.38 0 0 255
40.90 -106.30 -276.46 0 0 255
13.02 -94.18 -282.96 0 0 255
119.57 -94.46 -290.54 0 0 255
98.51 -65.30 -323.88 0 0 255
64.01 -103.30 -284.20 0 0 255
23.37 -96.28 -277.82 0 0 255
4.75 -81.05 -272.62 0 0 255
22.41 -50.31 -283.98 0 0 255
167.81 -69.39 -287.64 0 0 255
123.36 20.69 -352.30 0 0 255
100.48 15.74 -352.28 0 0 255
103.58 -5.37 -343.22 0 0 255
126.64 68.74 -292.92 0 0 255
90.38 63.85 -320.92 0 0 255
